<?xml version="1.0" encoding="UTF-8" standalone="no"?>
<!DOCTYPE svg PUBLIC "-//W3C//DTD SVG 1.1//EN" "http://www.w3.org/Graphics/SVG/1.1/DTD/svg11.dtd">
<svg width="100%" height="100%" viewBox="0 0 219 256" version="1.1" xmlns="http://www.w3.org/2000/svg" xmlns:xlink="http://www.w3.org/1999/xlink" xml:space="preserve" xmlns:serif="http://www.serif.com/" style="fill-rule:evenodd;clip-rule:evenodd;stroke-linejoin:round;stroke-miterlimit:2;">
    <g transform="matrix(0.664774,0,0,-0.664774,-170.202,325.655)">
        <path d="M576.642,339.658C576.64,352.215 566.462,362.392 553.906,362.388C541.351,362.398 531.174,352.203 531.176,339.645L531.192,244.43C531.191,231.86 541.364,221.7 553.928,221.697L553.928,221.697C566.397,221.697 576.658,231.958 576.658,244.427C576.658,244.431 576.658,244.436 576.658,244.44L576.641,339.657L576.642,339.658ZM319.125,358.066L319.16,210.511C319.15,197.089 330.005,186.256 343.42,186.253L359.94,186.246L359.96,135.866C359.957,123.326 370.153,113.126 382.68,113.126C395.244,113.126 405.422,123.332 405.425,135.881L405.413,186.251L436.109,186.257L436.122,135.88C436.119,123.344 446.322,113.13 458.85,113.15C471.413,113.142 481.597,123.348 481.595,135.9L481.581,186.263L498.158,186.276C511.54,186.271 522.426,197.12 522.428,210.542L522.403,358.099L319.126,358.065L319.125,358.066ZM467.358,403.096C462.623,403.091 458.758,406.93 458.77,411.681C458.786,416.386 462.618,420.269 467.362,420.285C472.063,420.246 475.913,416.377 475.93,411.676C475.93,411.673 475.93,411.669 475.93,411.666C475.93,406.965 472.061,403.096 467.36,403.096C467.359,403.096 467.359,403.096 467.358,403.096M374.1,403.079C369.403,403.096 365.546,406.963 365.541,411.66C365.543,416.378 369.376,420.257 374.108,420.256C378.82,420.248 382.695,416.374 382.704,411.662C382.706,406.93 378.856,403.082 374.1,403.079M470.918,447.861L486.788,476.841C487.634,478.355 487.088,480.284 485.543,481.139C483.996,481.959 482.083,481.402 481.265,479.877L465.235,450.594C451.735,456.594 436.653,459.964 420.682,459.946C404.752,459.959 389.666,456.606 376.234,450.646L360.188,479.853C359.352,481.393 357.433,481.951 355.918,481.113C354.373,480.283 353.818,478.35 354.665,476.839L370.542,447.879C339.347,431.779 318.272,401.155 318.287,365.983L523.087,366.003C523.093,401.17 502.055,431.741 470.907,447.868M287.553,362.368C274.997,362.374 264.821,352.168 264.818,339.632L264.835,244.419C264.835,244.415 264.835,244.41 264.835,244.406C264.835,231.937 275.096,221.676 287.565,221.676C287.568,221.676 287.588,221.676 287.594,221.676C300.052,221.676 310.304,231.928 310.304,244.386C310.304,244.397 310.304,244.407 310.304,244.418L310.306,339.645C310.301,352.187 300.11,362.375 287.553,362.368" style="fill-rule:nonzero;"/>
    </g>
</svg>
