<?xml version="1.0" encoding="UTF-8" standalone="no"?>
<!DOCTYPE svg PUBLIC "-//W3C//DTD SVG 1.1//EN" "http://www.w3.org/Graphics/SVG/1.1/DTD/svg11.dtd">
<svg width="100%" height="100%" viewBox="0 0 2000 2000" version="1.1" xmlns="http://www.w3.org/2000/svg" xmlns:xlink="http://www.w3.org/1999/xlink" xml:space="preserve" xmlns:serif="http://www.serif.com/" style="fill-rule:evenodd;clip-rule:evenodd;stroke-linejoin:round;stroke-miterlimit:2;">
    <g transform="matrix(0.833527,0,0,0.833527,165.397,168.637)">
        <path d="M518.826,1140.32C461.27,1134.99 403.782,1128.69 346.389,1121.44L367.126,957.286C391.754,960.397 416.399,963.326 441.06,966.074L441.06,150.841C441.06,134.923 453.983,122 469.901,122L1532.68,122C1548.6,122 1561.52,134.923 1561.52,150.841L1561.52,966.074C1586.18,963.326 1610.83,960.397 1635.46,957.286L1656.19,1121.44C1598.8,1128.69 1541.31,1134.99 1483.76,1140.32L1092.97,1468.23L1504.7,1813.71L1428.94,1904L1001.29,1545.16L573.64,1904L497.881,1813.71L909.613,1468.23L518.826,1140.32ZM1438.42,978.265L1438.42,598.351L564.159,598.351L564.159,978.265C855.01,1003.48 1147.57,1003.48 1438.42,978.265ZM719.735,1155.05L1001.29,1391.3L1282.85,1155.05C1095.29,1165.17 907.298,1165.17 719.735,1155.05Z"/>
    </g>
    <g transform="matrix(88.6476,0,0,56.7009,-54456.4,-26771.2)">
        <g transform="matrix(4.30498,0,0,4.30498,622.591,481.954)">
            <path d="M0.491,-0.478C0.471,-0.49 0.45,-0.501 0.429,-0.51C0.411,-0.518 0.391,-0.526 0.369,-0.533C0.346,-0.54 0.324,-0.543 0.303,-0.543C0.286,-0.543 0.272,-0.54 0.262,-0.535C0.251,-0.53 0.246,-0.521 0.246,-0.508C0.246,-0.499 0.249,-0.491 0.255,-0.485C0.261,-0.479 0.27,-0.474 0.281,-0.469C0.292,-0.464 0.306,-0.459 0.323,-0.454C0.339,-0.449 0.357,-0.444 0.378,-0.437C0.411,-0.427 0.44,-0.416 0.467,-0.404C0.493,-0.392 0.515,-0.378 0.534,-0.362C0.553,-0.345 0.567,-0.325 0.577,-0.302C0.587,-0.279 0.592,-0.25 0.592,-0.217C0.592,-0.174 0.584,-0.138 0.569,-0.11C0.553,-0.081 0.532,-0.057 0.507,-0.04C0.481,-0.023 0.452,-0.01 0.42,-0.003C0.387,0.005 0.355,0.009 0.322,0.009C0.296,0.009 0.269,0.007 0.242,0.003C0.215,-0.001 0.188,-0.007 0.161,-0.014C0.133,-0.021 0.108,-0.03 0.083,-0.04C0.057,-0.05 0.034,-0.061 0.013,-0.074L0.097,-0.245C0.12,-0.23 0.145,-0.217 0.17,-0.206C0.191,-0.196 0.216,-0.187 0.243,-0.179C0.27,-0.171 0.297,-0.167 0.325,-0.167C0.346,-0.167 0.361,-0.17 0.37,-0.176C0.378,-0.181 0.382,-0.189 0.382,-0.198C0.382,-0.208 0.378,-0.217 0.37,-0.224C0.361,-0.231 0.35,-0.237 0.335,-0.242C0.32,-0.247 0.304,-0.253 0.285,-0.258C0.266,-0.263 0.245,-0.27 0.224,-0.277C0.193,-0.288 0.166,-0.299 0.143,-0.312C0.12,-0.324 0.102,-0.338 0.087,-0.354C0.072,-0.369 0.062,-0.387 0.055,-0.407C0.047,-0.427 0.044,-0.45 0.044,-0.476C0.044,-0.515 0.051,-0.55 0.066,-0.58C0.08,-0.61 0.099,-0.635 0.124,-0.655C0.149,-0.675 0.177,-0.69 0.209,-0.701C0.24,-0.711 0.274,-0.716 0.309,-0.716C0.335,-0.716 0.36,-0.713 0.385,-0.709C0.41,-0.704 0.434,-0.697 0.457,-0.69C0.48,-0.682 0.501,-0.674 0.521,-0.665C0.541,-0.656 0.559,-0.647 0.575,-0.639L0.491,-0.478Z" style="fill:rgb(131,131,131);fill-rule:nonzero;"/>
        </g>
        <g transform="matrix(4.30498,0,0,4.30498,625.463,481.954)">
            <path d="M0.061,-0L0.061,-0.71L0.256,-0.71L0.256,-0.44L0.472,-0.71L0.692,-0.71L0.434,-0.392L0.71,-0L0.486,-0L0.31,-0.261L0.256,-0.205L0.256,-0L0.061,-0Z" style="fill:rgb(131,131,131);fill-rule:nonzero;"/>
        </g>
    </g>
</svg>
